HIERARCHY
ROOT Hips
{
	OFFSET 0.000000 0.000000 0.000000
	CHANNELS 6 Xposition Yposition Zposition Zrotation Yrotation Xrotation 
	JOINT LHipJoint
	{
		OFFSET 0.000000 0.000000 0.000000
		CHANNELS 3 Zrotation Yrotation Xrotation
		JOINT LeftUpLeg
		{
			OFFSET 1.363060 -1.794630 0.839290
			CHANNELS 3 Zrotation Yrotation Xrotation
			JOINT LeftLeg
			{
				OFFSET 2.448110 -6.726130 0.000000
				CHANNELS 3 Zrotation Yrotation Xrotation
				JOINT LeftFoot
				{
					OFFSET 2.562200 -7.039590 0.000000
					CHANNELS 3 Zrotation Yrotation Xrotation
					JOINT LeftToeBase
					{
						OFFSET 0.157640 -0.433110 2.322550
						CHANNELS 3 Zrotation Yrotation Xrotation
						End Site
						{
							OFFSET 0.000000 0.000000 0.000000
						}
					}
				}
			}
		}
	}
	JOINT RHipJoint
	{
		OFFSET 0.000000 0.000000 0.000000
		CHANNELS 3 Zrotation Yrotation Xrotation
		JOINT RightUpLeg
		{
			OFFSET -1.305520 -1.794630 0.839290
			CHANNELS 3 Zrotation Yrotation Xrotation
			JOINT RightLeg
			{
				OFFSET -2.542530 -6.985550 0.000000
				CHANNELS 3 Zrotation Yrotation Xrotation
				JOINT RightFoot
				{
					OFFSET -2.568260 -7.056230 0.000000
					CHANNELS 3 Zrotation Yrotation Xrotation
					JOINT RightToeBase
					{
						OFFSET -0.164730 -0.452590 2.363150
						CHANNELS 3 Zrotation Yrotation Xrotation
						End Site
						{
							OFFSET 0.000000 0.000000 0.000000
						}
					}
				}
			}
		}
	}
	JOINT LowerBack
	{
		OFFSET 0.000000 0.000000 0.000000
		CHANNELS 3 Zrotation Yrotation Xrotation
		JOINT Spine
		{
			OFFSET 0.028270 2.035590 -0.193380
			CHANNELS 3 Zrotation Yrotation Xrotation
			JOINT Spine1
			{
				OFFSET 0.056720 2.048850 -0.042750
				CHANNELS 3 Zrotation Yrotation Xrotation
				JOINT Neck
				{
					OFFSET 0.000000 0.000000 0.000000
					CHANNELS 3 Zrotation Yrotation Xrotation
					JOINT Neck1
					{
						OFFSET -0.054170 1.746240 0.172020
						CHANNELS 3 Zrotation Yrotation Xrotation
						JOINT Head
						{
							OFFSET 0.104070 1.761360 -0.123970
							CHANNELS 3 Zrotation Yrotation Xrotation
							End Site
							{
								OFFSET 0.000000 0.000000 0.000000
							}
						}
					}
				}
				JOINT LeftShoulder
				{
					OFFSET 0.000000 0.000000 0.000000
					CHANNELS 3 Zrotation Yrotation Xrotation
					JOINT LeftArm
					{
						OFFSET 3.362410 1.200890 -0.311210
						CHANNELS 3 Zrotation Yrotation Xrotation
						JOINT LeftForeArm
						{
							OFFSET 4.983000 -0.000000 -0.000000
							CHANNELS 3 Zrotation Yrotation Xrotation
							JOINT LeftHand
							{
								OFFSET 3.483560 -0.000000 -0.000000
								CHANNELS 3 Zrotation Yrotation Xrotation
								JOINT LeftFingerBase
								{
									OFFSET 0.000000 0.000000 0.000000
									CHANNELS 3 Zrotation Yrotation Xrotation
									JOINT LeftHandIndex1
									{
										OFFSET 0.715260 -0.000000 -0.000000
										CHANNELS 3 Zrotation Yrotation Xrotation
										End Site
										{
											OFFSET 0.000000 0.000000 0.000000
										}
									}
								}
								JOINT LThumb
								{
									OFFSET 0.000000 0.000000 0.000000
									CHANNELS 3 Zrotation Yrotation Xrotation
									End Site
									{
										OFFSET 0.000000 0.000000 0.000000
									}
								}
							}
						}
					}
				}
				JOINT RightShoulder
				{
					OFFSET 0.000000 0.000000 0.000000
					CHANNELS 3 Zrotation Yrotation Xrotation
					JOINT RightArm
					{
						OFFSET -3.136600 1.374050 -0.404650
						CHANNELS 3 Zrotation Yrotation Xrotation
						JOINT RightForeArm
						{
							OFFSET -5.241900 -0.000000 -0.000000
							CHANNELS 3 Zrotation Yrotation Xrotation
							JOINT RightHand
							{
								OFFSET -3.444170 -0.000000 -0.000000
								CHANNELS 3 Zrotation Yrotation Xrotation
								JOINT RightFingerBase
								{
									OFFSET 0.000000 0.000000 0.000000
									CHANNELS 3 Zrotation Yrotation Xrotation
									JOINT RightHandIndex1
									{
										OFFSET -0.622530 -0.000000 -0.000000
										CHANNELS 3 Zrotation Yrotation Xrotation
										End Site
										{
											OFFSET 0.000000 0.000000 0.000000
										}
									}
								}
								JOINT RThumb
								{
									OFFSET 0.000000 0.000000 0.000000
									CHANNELS 3 Zrotation Yrotation Xrotation
									End Site
									{
										OFFSET 0.000000 0.000000 0.000000
									}
								}
							}
						}
					}
				}
			}
		}
	}
}
MOTION
Frames: 11
Frame Time: 0.008333
1.248405 16.535897 -1.273031 14.352119 80.622744 22.048781 -12.497512 6.101826 0.512915 -1.401027 15.273798 -3.509493 -0.348346 2.620450 42.534024 0.726972 -11.787255 22.801029 -5.923600 -0.000000 -80.665300 7.680051 -0.927148 3.398718 17.795219 2.401766 -38.236822 1.836793 -1.225579 30.897202 -3.490321 -12.147746 -13.922675 -179.487700 0.000000 -3.647700 6.695302 -5.948058 -5.752283 1.343270 -6.549074 -3.871929 -4.695358 -6.596213 0.924674 8.441818 -18.392277 -10.476403 -2.591356 -0.166358 -0.653174 0.000000 0.000000 0.000000 6.524213 3.374327 -0.650017 -28.760297 -24.125228 -11.885724 -0.583218 -82.988370 -0.108742 10.537370 -0.448856 -0.097514 -0.093411 0.611506 -0.000000 0.000000 0.000000 0.000000 0.000000 0.000000 0.000000 12.666340 -17.788607 1.999736 57.461206 -26.272880 -28.180249 4.308830 17.913281 -0.005440 -1.870588 -1.655313 0.028859 0.160889 -0.034032 -0.000000 0.000000 0.000000 0.000000 0.000000 0.000000 0.000000 
1.380423 16.489337 -1.232757 11.435053 80.558903 18.994919 -12.527561 5.960712 0.364457 -0.568742 15.341548 -4.827171 -0.178832 2.779617 45.747291 0.839047 -10.827465 23.184451 -5.626999 0.000000 -77.025500 7.712794 -0.905768 3.250566 18.350587 2.538736 -38.465686 1.767993 -1.446932 33.215962 -3.523624 -12.070159 -15.054728 -179.159300 -0.000000 -5.484599 6.985020 -5.870840 -5.417736 1.337520 -6.490197 -3.823670 -4.939908 -6.531481 0.836032 8.812283 -18.026795 -10.451495 -2.771054 -0.181691 -0.651096 0.000000 0.000000 0.000000 6.361320 3.092364 -0.627324 -30.129695 -23.464417 -11.823141 -0.613729 -83.535189 -0.110437 10.771728 -0.663144 -0.119895 -0.099728 0.610968 -0.000000 0.000000 0.000000 0.000000 0.000000 0.000000 0.000000 13.524584 -17.415479 2.037223 58.074784 -24.829031 -27.608422 4.285025 17.761881 -0.005627 -1.778969 -1.826366 0.030451 0.154818 -0.032084 -0.000000 0.000000 0.000000 0.000000 0.000000 0.000000 0.000000 
1.505036 16.440637 -1.192285 8.641349 80.481650 16.023386 -12.537817 5.790176 0.187048 0.204301 15.345992 -6.146161 0.002619 2.954851 49.009126 0.955689 -9.187823 23.185939 -4.940800 -0.000000 -73.148400 7.754344 -0.880006 3.068936 18.911476 2.594045 -38.537104 1.715970 -1.643719 35.339582 -3.559173 -11.984303 -16.289301 -178.806400 0.000000 -7.169700 7.232582 -5.804466 -5.002928 1.318651 -6.436731 -3.762468 -5.201638 -6.473384 0.727961 9.202127 -17.588560 -10.399592 -2.961122 -0.197966 -0.642937 0.000000 0.000000 0.000000 6.191388 2.742139 -0.587107 -31.453543 -22.727604 -11.766618 -0.638054 -84.018507 -0.112424 11.058023 -0.893667 -0.145480 -0.107082 0.609609 -0.000000 0.000000 0.000000 0.000000 0.000000 0.000000 0.000000 14.428489 -16.982630 2.082629 58.719707 -23.257259 -27.091821 4.247389 17.495703 -0.005563 -1.759987 -1.892534 0.031144 0.148303 -0.031154 -0.000000 0.000000 0.000000 0.000000 0.000000 0.000000 0.000000 
1.623150 16.390527 -1.151606 5.975999 80.391529 13.146340 -12.534379 5.594227 -0.011484 0.919760 15.287160 -7.468518 0.196672 3.144252 52.281070 1.082672 -6.929499 22.772722 -3.912701 -0.000000 -69.142800 7.800677 -0.854143 2.859192 19.478485 2.573043 -38.454321 1.681300 -1.816429 37.250757 -3.599193 -11.902997 -17.594524 -178.438200 0.000000 -8.684900 7.441936 -5.747664 -4.524497 1.289178 -6.387666 -3.692133 -5.474630 -6.421097 0.601957 9.594915 -17.078656 -10.313616 -3.158841 -0.214997 -0.626726 0.000000 0.000000 0.000000 6.002478 2.330969 -0.529339 -32.733839 -21.921321 -11.701942 -0.656607 -84.414668 -0.114738 11.407325 -1.145087 -0.175268 -0.115494 0.607273 -0.000000 0.000000 0.000000 0.000000 0.000000 0.000000 0.000000 15.355563 -16.493513 2.134394 59.385894 -21.555333 -26.627092 4.194529 17.091347 -0.005290 -1.837790 -1.852026 0.031641 0.141394 -0.031249 -0.000000 0.000000 0.000000 0.000000 0.000000 0.000000 0.000000 
1.735747 16.339928 -1.110517 3.470227 80.286458 10.404180 -12.522439 5.377522 -0.222053 1.573582 15.162944 -8.796066 0.401936 3.344583 55.519134 1.225352 -4.168749 21.926288 -2.638800 -0.000001 -65.003600 7.849080 -0.831046 2.627890 20.044453 2.484238 -38.232458 1.662282 -1.966787 38.947764 -3.644256 -11.833842 -18.934165 -178.063900 0.000000 -10.017400 7.611976 -5.698461 -4.001783 1.250642 -6.341100 -3.616479 -5.752303 -6.372801 0.460796 9.976355 -16.498516 -10.187841 -3.361106 -0.232538 -0.600803 0.000000 0.000000 0.000000 5.786139 1.873776 -0.454676 -33.978707 -21.060297 -11.610447 -0.669780 -84.692296 -0.117380 11.827966 -1.420122 -0.210261 -0.124928 0.603744 -0.000000 0.000000 0.000000 0.000000 0.000000 0.000000 0.000000 16.286307 -15.950894 2.189939 60.062806 -19.726509 -26.200441 4.125975 16.536325 -0.004882 -2.027705 -1.713575 0.031838 0.134166 -0.032301 -0.000000 0.000000 0.000000 0.000000 0.000000 0.000000 0.000000 
1.843945 16.289812 -1.068764 1.167746 80.161856 7.852676 -12.506553 5.145756 -0.434301 2.158399 14.971200 -10.133419 0.615161 3.551613 58.676500 1.386977 -1.066043 20.648498 -1.250201 0.000000 -60.712100 7.897386 -0.812415 2.384058 20.597854 2.342724 -37.896832 1.655829 -2.096820 40.438639 -3.693538 -11.779608 -20.269613 -177.693200 0.000000 -11.162899 7.739228 -5.654111 -3.458476 1.204077 -6.294468 -3.540410 -6.027952 -6.325939 0.305875 10.332319 -15.846581 -10.015410 -3.564981 -0.250382 -0.563073 0.000000 0.000000 0.000000 5.537768 1.376166 -0.363575 -35.201449 -20.139413 -11.475702 -0.678277 -84.827575 -0.120212 12.324170 -1.717058 -0.251057 -0.135260 0.598645 -0.000000 0.000000 0.000000 0.000000 0.000000 0.000000 0.000000 17.201087 -15.352603 2.247164 60.742995 -17.785981 -25.792861 4.042290 15.832798 -0.004435 -2.334023 -1.495570 0.031533 0.126733 -0.034200 -0.000000 0.000000 0.000000 0.000000 0.000000 0.000000 0.000000 
1.948914 16.241295 -1.026294 -0.925971 80.010787 5.512788 -12.490088 4.904204 -0.638720 2.674496 14.713343 -11.486650 0.831738 3.760428 61.705203 1.567504 2.190155 18.971529 0.107400 0.000001 -56.287700 7.943316 -0.799484 2.138469 21.132779 2.174647 -37.475000 1.658706 -2.208684 41.734953 -3.746066 -11.742977 -21.562945 -177.334900 0.000001 -12.129300 7.827872 -5.610035 -2.917878 1.152338 -6.244114 -3.467489 -6.293700 -6.276825 0.143603 10.651257 -15.127911 -9.796750 -3.765792 -0.268087 -0.513462 0.000000 0.000000 0.000000 5.253161 0.871645 -0.257929 -36.423846 -19.192714 -11.275572 -0.683153 -84.771948 -0.123147 12.896674 -2.036927 -0.298659 -0.146252 0.591749 -0.000000 0.000000 0.000000 0.000000 0.000000 0.000000 0.000000 18.079764 -14.701585 2.302261 61.418323 -15.739200 -25.373134 3.945445 14.990245 -0.004052 -2.750856 -1.221769 0.029829 0.119286 -0.036807 -0.000000 0.000000 0.000000 0.000000 0.000000 0.000000 0.000000 
2.051711 16.195434 -0.983091 -2.801031 79.823992 3.409714 -12.475547 4.658059 -0.826235 3.122273 14.392246 -12.861740 1.046375 3.965661 64.560392 1.762483 5.408881 16.953514 1.300800 0.000001 -51.758400 7.984692 -0.792897 1.902503 21.643399 2.009661 -36.996437 1.667740 -2.304558 42.852481 -3.799914 -11.721819 -22.781205 -176.997201 -0.000000 -12.937400 7.882198 -5.561264 -2.403267 1.098089 -6.186163 -3.401483 -6.542281 -6.221508 -0.021159 10.922722 -14.345597 -9.532500 -3.959164 -0.285258 -0.451885 0.000000 0.000000 0.000000 4.931402 0.383251 -0.139256 -37.669004 -18.237590 -10.993864 -0.685856 -84.484629 -0.125953 13.539753 -2.374894 -0.353369 -0.157535 0.582694 -0.000000 0.000000 0.000000 0.000000 0.000000 0.000000 0.000000 18.902040 -13.996613 2.352188 62.085641 -13.600552 -24.907772 3.838684 14.032935 -0.003821 -3.260553 -0.918634 0.026025 0.112076 -0.039983 -0.000000 0.000000 0.000000 0.000000 0.000000 0.000000 0.000000 
2.153283 16.153237 -0.939156 -4.413909 79.591005 1.602289 -12.464982 4.412521 -0.988335 3.497206 14.010343 -14.264247 1.253245 4.161667 67.201165 1.963449 8.419976 14.677113 2.230900 -0.000000 -47.196800 8.019582 -0.792074 1.686665 22.120016 1.875993 -36.491868 1.679791 -2.386320 43.812042 -3.852343 -11.708149 -23.901213 -176.687099 -0.000001 -13.617100 7.900731 -5.502781 -1.936631 1.042603 -6.116446 -3.345566 -6.767046 -6.155679 -0.183328 11.139357 -13.505345 -9.225758 -4.140559 -0.301486 -0.378899 0.000000 0.000000 0.000000 4.575307 -0.069832 -0.009234 -38.957692 -17.283563 -10.620860 -0.687885 -83.928185 -0.128347 14.241714 -2.721891 -0.414391 -0.168625 0.571050 -0.000000 0.000000 0.000000 0.000000 0.000000 0.000000 0.000000 19.648772 -13.237625 2.394111 62.745602 -11.382973 -24.361812 3.726317 12.990180 -0.003796 -3.836409 -0.609140 0.019621 0.105409 -0.043604 -0.000000 0.000000 0.000000 0.000000 0.000000 0.000000 0.000000 
2.254411 16.115607 -0.894690 -5.765786 79.300187 0.102909 -12.459138 4.170675 -1.120208 3.804691 13.575880 -15.695909 1.446567 4.343478 69.595185 2.158258 11.082570 12.232598 2.841999 -0.000000 -42.664200 8.045613 -0.796818 1.499991 22.562131 1.804763 -35.982929 1.693173 -2.455736 44.629346 -3.901106 -11.694381 -24.906825 -176.410200 0.000001 -14.201900 7.889545 -5.428744 -1.532770 0.988389 -6.030415 -3.299632 -6.962603 -6.074423 -0.331186 11.299804 -12.614717 -8.889872 -4.305393 -0.316255 -0.298093 0.000000 0.000000 0.000000 4.186378 -0.421390 0.129912 -40.312012 -16.416721 -10.134443 -0.691546 -83.023817 -0.130064 14.985836 -3.073196 -0.481227 -0.179058 0.556735 -0.000000 0.000000 0.000000 0.000000 0.000000 0.000000 0.000000 20.310122 -12.423329 2.421302 63.397527 -9.100503 -23.682706 3.614271 11.919699 -0.004002 -4.440149 -0.323181 0.011017 0.099661 -0.047462 -0.000000 0.000000 0.000000 0.000000 0.000000 0.000000 0.000000 
2.355652 16.083264 -0.849646 -6.793590 78.940853 -1.016233 -12.458586 3.936498 -1.216948 4.036853 13.094027 -17.156295 1.620292 4.506518 71.715225 2.333934 13.301885 9.716371 3.128100 0.000000 -38.285400 8.061638 -0.805075 1.348943 22.957986 1.814520 -35.490627 1.705982 -2.513759 45.324894 -3.942909 -11.665409 -25.793658 -176.171000 0.000000 -14.724200 7.841948 -5.335236 -1.205835 0.934797 -5.924629 -3.265880 -7.125194 -5.974086 -0.463257 11.400094 -11.681229 -8.528597 -4.450295 -0.329324 -0.210210 0.000000 0.000000 0.000000 3.772773 -0.679880 0.277749 -41.739150 -15.609828 -9.545619 -0.699229 -81.756883 -0.130728 15.747331 -3.407960 -0.550490 -0.188168 0.539180 -0.000000 0.000000 0.000000 0.000000 0.000000 0.000000 0.000000 20.867571 -11.553431 2.432899 64.052577 -6.767373 -22.845000 3.507603 10.856725 -0.004397 -5.031094 -0.066981 0.000815 0.095106 -0.051480 -0.000000 0.000000 0.000000 0.000000 0.000000 0.000000 0.000000 
